 <svg width="1440" height="860" viewBox="0 0 1440 860" fill="none" xmlns="http://www.w3.org/2000/svg">
<g clip-path="url(#clip0_407_416)">
<rect width="1440" height="860" fill="white"/>
<g clip-path="url(#clip1_407_416)">
<path d="M-75.2277 1029.09L1615.17 840.453L1515.23 -169.087L-175.166 19.5473L-75.2277 1029.09Z" fill="#DFDCEF"/>
<path d="M1601.17 699.06L1561.04 704.7C1520.9 710.341 1440.63 721.621 1360.17 730.961C1279.72 740.299 1199.06 747.696 1118.55 756.501C1038.04 765.305 957.664 775.516 878.688 799.837C799.711 824.16 722.132 862.592 641.883 874.061C561.635 885.531 478.717 870.039 398.964 886.523C319.212 903.006 242.625 951.466 162.352 962.687C82.0785 973.909 -1.88063 947.892 -43.8612 934.883L-85.8407 921.874L-175.165 19.5472L-134.918 15.0559C-94.67 10.5645 -14.1756 1.58199 66.3197 -7.40065C146.814 -16.3832 227.309 -25.3658 307.804 -34.3484C388.299 -43.331 468.794 -52.3137 549.289 -61.2962C629.784 -70.2789 710.279 -79.2614 790.774 -88.244C871.268 -97.2266 951.764 -106.209 1032.26 -115.192C1112.75 -124.174 1193.25 -133.157 1273.74 -142.14C1354.24 -151.122 1434.73 -160.105 1474.98 -164.596L1515.23 -169.087L1601.17 699.06Z" fill="#E3E0F1"/>
<path d="M1595.49 641.712L1555.98 653.678C1516.48 665.645 1437.46 689.578 1356.2 690.843C1274.94 692.109 1191.44 670.707 1110.4 674.211C1029.37 677.714 950.794 706.124 871.263 724.83C791.73 743.537 711.238 752.54 629.347 747.428C547.457 742.315 464.169 723.087 382.174 716.919C300.18 710.75 219.477 717.641 140.691 743.875C61.9033 770.11 -14.9683 815.688 -53.4051 838.476L-91.841 861.265L-175.166 19.5472L-134.918 15.0559C-94.6703 10.5645 -14.1759 1.58199 66.3194 -7.40066C146.814 -16.3832 227.309 -25.3658 307.804 -34.3484C388.299 -43.331 468.794 -52.3137 549.289 -61.2962C629.784 -70.2789 710.278 -79.2614 790.773 -88.244C871.268 -97.2266 951.763 -106.209 1032.26 -115.192C1112.75 -124.174 1193.25 -133.157 1273.74 -142.14C1354.24 -151.122 1434.73 -160.105 1474.98 -164.596L1515.23 -169.087L1595.49 641.712Z" fill="#E7E5F3"/>
<path d="M1582.36 509.099L1541.04 502.699C1499.71 496.3 1417.06 483.499 1335.04 477.072C1253.02 470.646 1171.63 470.593 1091.73 485.518C1011.82 500.444 933.394 530.35 855.007 560.62C776.619 590.891 698.268 621.528 618.953 642.431C539.639 663.336 459.36 674.508 377.559 670.295C295.758 666.082 212.434 646.485 131.05 646.484C49.6653 646.483 -29.7785 666.079 -69.5012 675.877L-109.223 685.675L-175.166 19.5464L-134.918 15.0551C-94.6702 10.5637 -14.1758 1.58118 66.3195 -7.40147C146.814 -16.384 227.309 -25.3667 307.804 -34.3492C388.299 -43.3318 468.794 -52.3145 549.289 -61.297C629.784 -70.2797 710.278 -79.2622 790.774 -88.2449C871.268 -97.2274 951.763 -106.21 1032.26 -115.193C1112.75 -124.175 1193.25 -133.158 1273.74 -142.14C1354.24 -151.123 1434.73 -160.106 1474.98 -164.597L1515.23 -169.088L1582.36 509.099Z" fill="#EBE9F5"/>
<path d="M1570.29 387.168L1529.79 389.062C1489.28 390.957 1408.27 394.745 1327.41 400.044C1246.56 405.343 1165.85 412.151 1084.09 408.384C1002.33 404.618 919.527 390.276 837.46 383.375C755.393 376.474 674.063 377.013 593.066 380.931C512.07 384.849 431.408 392.146 351.878 410.881C272.349 429.617 193.952 459.79 115.126 485.633C36.3 511.476 -42.9541 532.988 -82.582 543.744L-122.209 554.499L-175.166 19.5467L-134.919 15.0555C-94.6707 10.5641 -14.1762 1.58155 66.319 -7.40109C146.813 -16.3836 227.309 -25.3663 307.803 -34.3488C388.298 -43.3315 468.794 -52.3141 549.288 -61.2967C629.783 -70.2793 710.278 -79.2618 790.773 -88.2445C871.268 -97.227 951.763 -106.21 1032.26 -115.192C1112.75 -124.175 1193.25 -133.157 1273.74 -142.14C1354.24 -151.123 1434.73 -160.105 1474.98 -164.597L1515.23 -169.088L1570.29 387.168Z" fill="#EFEEF7"/>
<path d="M1556.68 249.67L1514.61 235.688C1472.53 221.708 1388.38 193.746 1305.78 181.487C1223.18 169.228 1142.14 172.673 1061.35 178.691C980.562 184.708 900.028 193.298 820.347 210.5C740.665 227.701 661.837 253.514 582.382 273.007C502.928 292.5 422.848 305.672 343.2 323.214C263.553 340.756 184.337 362.668 102.832 361.438C21.3256 360.208 -62.4709 335.835 -104.37 323.648L-146.268 311.461L-175.166 19.5472L-134.919 15.0559C-94.6705 10.5646 -14.1761 1.58201 66.3192 -7.40064C146.814 -16.3832 227.309 -25.3658 307.803 -34.3484C388.299 -43.331 468.794 -52.3137 549.288 -61.2962C629.784 -70.2788 710.278 -79.2614 790.773 -88.244C871.268 -97.2266 951.763 -106.209 1032.26 -115.192C1112.75 -124.174 1193.25 -133.157 1273.74 -142.14C1354.24 -151.122 1434.73 -160.105 1474.98 -164.596L1515.23 -169.087L1556.68 249.67Z" fill="#F3F2F9"/>
<path d="M1531.49 -4.78604L1491.13 -1.48846C1450.76 1.80828 1370.03 8.40251 1289.81 20.1558C1209.59 31.9099 1129.88 48.8221 1051.34 77.587C972.805 106.352 895.442 146.97 814.572 152.164C733.702 157.358 649.326 127.129 567.949 127.203C486.572 127.277 408.195 157.653 329.5 184.828C250.807 212.002 171.795 235.974 91.3316 245.266C10.8668 254.557 -71.0504 249.168 -112.01 246.474L-152.968 243.779L-175.166 19.5477L-134.919 15.0564C-94.6705 10.5651 -14.1761 1.58253 66.3192 -7.40011C146.814 -16.3827 227.309 -25.3653 307.803 -34.3478C388.299 -43.3305 468.794 -52.3131 549.288 -61.2957C629.784 -70.2783 710.278 -79.2609 790.773 -88.2435C871.268 -97.226 951.763 -106.209 1032.26 -115.191C1112.75 -124.174 1193.25 -133.157 1273.74 -142.139C1354.24 -151.122 1434.73 -160.104 1474.98 -164.596L1515.23 -169.087L1531.49 -4.78604Z" fill="#F7F6FB"/>
<path d="M1515.52 -166.125L1476.39 -150.332C1437.26 -134.539 1359.01 -102.955 1279.83 -80.6533C1200.65 -58.3523 1120.56 -45.3343 1041.12 -25.6273C961.691 -5.92016 882.92 20.4752 803.307 38.3707C723.694 56.2662 643.241 65.6619 561.97 66.8038C480.699 67.9465 398.611 60.8364 315.956 48.0073C233.303 35.1791 150.082 16.6331 68.6637 16.2821C-12.7556 15.9302 -92.373 33.7724 -132.183 42.6936L-171.991 51.6147L-175.166 19.5468L-134.919 15.0556C-94.6705 10.5642 -14.176 1.58165 66.3193 -7.40099C146.814 -16.3835 227.309 -25.3662 307.803 -34.3487C388.299 -43.3314 468.794 -52.314 549.288 -61.2966C629.784 -70.2792 710.278 -79.2617 790.773 -88.2444C871.268 -97.2269 951.763 -106.21 1032.26 -115.192C1112.75 -124.175 1193.25 -133.157 1273.74 -142.14C1354.24 -151.123 1434.73 -160.105 1474.98 -164.597L1515.23 -169.088L1515.52 -166.125Z" fill="#FBFBFD"/>
</g>
</g>
<defs>
<clipPath id="clip0_407_416">
<rect width="1440" height="860" fill="white"/>
</clipPath>
<clipPath id="clip1_407_416">
<rect width="1440" height="860" fill="white"/>
</clipPath>
</defs>
</svg>
